<?xml version="1.0" standalone="no"?>
<!DOCTYPE svg PUBLIC "-//W3C//DTD SVG 20010904//EN"
 "http://www.w3.org/TR/2001/REC-SVG-20010904/DTD/svg10.dtd">
<svg version="1.0" xmlns="http://www.w3.org/2000/svg"
 width="1024.000000pt" height="1024.000000pt" viewBox="0 0 1024.000000 1024.000000"
 preserveAspectRatio="xMidYMid meet">
<metadata>
Created by potrace 1.11, written by Peter Selinger 2001-2013
</metadata>
<g transform="translate(0.000000,1024.000000) scale(0.100000,-0.100000)"
fill="#000000" stroke="none">
<path d="M10 5115 l0 -5115 5115 0 5115 0 0 5115 0 5115 -5115 0 -5115 0 0
-5115z m10220 -5 l0 -5100 -5100 0 -5100 0 0 5100 0 5100 5100 0 5100 0 0
-5100z"/>
<path d="M2481 8905 c-56 -17 -138 -74 -174 -120 -16 -20 -40 -61 -55 -93
l-27 -57 0 -3525 0 -3525 31 -66 c18 -37 48 -84 68 -106 48 -53 137 -99 216
-112 90 -15 5079 -15 5169 -1 150 25 264 126 305 270 15 50 16 383 14 3560
l-3 3505 -32 67 c-39 82 -106 151 -181 186 l-57 27 -2615 2 c-2197 1 -2622 0
-2659 -12z m1155 -1523 c52 -38 160 -173 335 -417 207 -290 321 -427 524 -631
258 -259 474 -412 607 -430 147 -20 424 96 653 274 159 123 340 325 439 489
64 108 96 188 155 389 25 86 57 124 104 124 56 0 124 -29 157 -67 35 -39 35
-29 0 -218 -33 -176 -51 -328 -60 -511 -14 -294 8 -406 124 -643 64 -130 70
-168 31 -207 -32 -32 -143 -84 -195 -91 -52 -7 -86 15 -111 72 -13 28 -37 165
-69 392 -28 191 -53 354 -55 361 -3 9 -40 -18 -102 -74 -196 -175 -352 -283
-552 -383 -189 -95 -335 -133 -516 -134 -148 0 -228 18 -350 78 -170 84 -300
195 -613 520 -97 101 -178 183 -179 181 -2 -2 -33 -99 -69 -217 -35 -118 -92
-295 -124 -394 -33 -99 -76 -238 -95 -310 -20 -73 -43 -138 -54 -148 -12 -12
-45 -23 -92 -30 -68 -9 -78 -8 -126 13 -63 27 -133 98 -133 135 0 34 24 79 70
135 118 142 246 433 316 715 28 112 33 255 14 353 -18 91 -109 264 -197 376
-130 163 -143 184 -143 226 0 64 66 98 196 99 63 1 76 -2 110 -27z m3979
-2015 c131 -67 192 -210 151 -352 -23 -75 -106 -163 -180 -188 -62 -21 -149
-22 -209 -1 -92 31 -177 136 -193 240 -9 59 12 146 49 201 33 50 107 106 161
123 56 17 166 6 221 -23z"/>
</g>
</svg>
